<svg xmlns="http://www.w3.org/2000/svg" xmlns:xlink="http://www.w3.org/1999/xlink" viewBox="0,0,256,256" width="100px" height="100px" fill-rule="nonzero"><g fill="#b14f06" fill-rule="nonzero" stroke="none" stroke-width="1" stroke-linecap="butt" stroke-linejoin="miter" stroke-miterlimit="10" stroke-dasharray="" stroke-dashoffset="0" font-family="none" font-weight="none" font-size="none" text-anchor="none" style="mix-blend-mode: normal"><g transform="scale(5.12,5.12)"><path d="M30.62109,4.60938c-3.5,0 -8.01953,1.9375 -12.35937,5.15625c-0.39844,0.29688 -0.79297,0.59375 -1.18359,0.91016c-0.10547,0.08594 -0.21094,0.17578 -0.31641,0.26172c-0.40625,0.33594 -0.80859,0.68359 -1.21094,1.04297c-0.13672,0.12109 -0.27344,0.24219 -0.41016,0.36719c-0.49219,0.44922 -0.98047,0.90625 -1.46094,1.38672l-0.00391,0.00391l-0.00781,0.01172c-0.50391,0.50391 -0.98437,1.01172 -1.44922,1.52734c-0.16016,0.17188 -0.30469,0.34375 -0.45703,0.51953c-0.30859,0.34375 -0.60937,0.69141 -0.89844,1.04297c-0.09375,0.10938 -0.17969,0.22266 -0.26953,0.33594c-5.84375,7.32422 -7.33594,14.55469 -4.71875,17.16797c0.83984,0.84375 2.08984,1.26563 3.72266,1.26563c1.65625,0 3.54297,-0.44141 5.52734,-1.23437c0.5,-3.70703 2.82031,-8.53125 6.76953,-12.48047c3.93359,-3.93359 8.76953,-6.25781 12.47656,-6.78125c0.15234,-0.39062 0.30859,-0.78125 0.4375,-1.16797c1.21094,-3.625 1.03906,-6.56641 -0.46484,-8.07031c-0.83984,-0.83984 -2.09375,-1.26562 -3.72266,-1.26562zM36.15234,4.9375c3.21094,4.00781 0.89453,12.23438 -5.35156,19.83203c-0.89062,1.09375 -1.85156,2.16797 -2.89062,3.20313c-0.69141,0.69531 -1.40625,1.34375 -2.12891,1.97266c-0.17187,0.14844 -0.34375,0.29297 -0.51562,0.44141c-0.23047,0.19531 -0.46484,0.39453 -0.70312,0.58203c-5.23047,4.25 -10.75,6.64063 -14.96484,6.64063c-1.89063,0 -3.51563,-0.48437 -4.73828,-1.49609c0.52344,1.25781 1.64844,3.41406 3.88281,5.65234c1.82422,1.82422 5.55078,4.23438 10.64453,4.23438c4.80078,0 10.82031,-2.14062 17.61328,-8.9375c14.125,-14.125 8.23047,-24.74219 4.70703,-28.26562c-2.19922,-2.19922 -4.25,-3.3125 -5.55469,-3.85937zM28.20703,8.03125c0.41016,-0.0625 0.79688,0.21484 0.85938,0.625c0.06641,0.40625 -0.21484,0.79297 -0.625,0.85938c-0.47656,0.07422 -0.83594,0.5 -0.83594,0.98438c0,0.55469 0.44531,1 1,1c0.49219,0 0.90625,-0.35156 0.98438,-0.83594c0.06641,-0.41016 0.44531,-0.69141 0.85938,-0.61719c0.40625,0.0625 0.6875,0.44922 0.62109,0.85938c-0.19531,1.21484 -1.23437,2.09375 -2.46484,2.09375c-0.75391,0 -1.42187,-0.33984 -1.88281,-0.86719c-0.23828,0.62891 -0.48047,1.3125 -0.69141,1.95703c-0.21875,1.07422 -1.24609,1.91016 -2.42578,1.91016c-0.70703,0 -1.33984,-0.29297 -1.79297,-0.76172c-0.29687,0.92578 -0.57812,1.98438 -0.75391,2.75c-0.20703,1.15234 -1.24219,2.01172 -2.45312,2.01172c-0.68359,0 -1.30078,-0.27344 -1.75,-0.71875c-0.21094,0.92578 -0.28516,1.84375 -0.33984,2.60156c-0.03125,0.41016 -0.0625,0.77734 -0.10547,1.07813c-0.17187,1.21094 -1.23437,2.125 -2.47266,2.125c-0.39844,0 -0.76562,-0.10156 -1.09766,-0.26953c0.01563,0.67969 0.0625,1.30859 0.10938,1.86719c0.07031,0.86328 0.13281,1.60938 0.04688,2.23438c-0.17187,1.21094 -1.23437,2.125 -2.47656,2.125c-1.37891,0 -2.49609,-1.12109 -2.49609,-2.5c0,-0.67578 0.26563,-1.30859 0.74609,-1.78125c0.29688,-0.29297 0.76953,-0.28906 1.05859,0.00781c0.29297,0.29688 0.28906,0.76953 -0.00781,1.05859c-0.19141,0.19141 -0.29687,0.44531 -0.29687,0.71875c0,0.55078 0.44531,1 0.99609,1c0.49609,0 0.92188,-0.35937 0.98828,-0.83594c0.0625,-0.45703 0.00781,-1.12891 -0.05469,-1.90234c-0.10547,-1.24609 -0.23437,-2.80078 0.01563,-4.60547c0.00391,-0.02734 0.01953,-0.05469 0.02734,-0.08203c0.12891,-0.69141 0.52734,-1.30078 1.14453,-1.67187c0.35547,-0.21875 0.81641,-0.10547 1.03125,0.25c0.21484,0.35547 0.10156,0.81641 -0.25,1.03125c-0.30469,0.18359 -0.48437,0.50391 -0.48437,0.85547c0,0.55078 0.44922,1 1,1c0.49609,0 0.92188,-0.35937 0.98438,-0.83594c0.03906,-0.27344 0.06641,-0.60547 0.09375,-0.98047c0.10938,-1.42969 0.27344,-3.58984 1.375,-5.42187c0,-0.00391 0.00391,-0.00391 0.01172,-0.00781c0.33984,-0.64453 0.95313,-1.13281 1.69922,-1.28906c0.40625,-0.07812 0.80469,0.17969 0.88281,0.58594c0.08594,0.40625 -0.17578,0.80078 -0.58203,0.88281c-0.46094,0.09766 -0.79687,0.50781 -0.79687,0.98047c0,0.55469 0.44531,1 1,1c0.48047,0 0.89844,-0.34375 0.98438,-0.81641c0.15625,-0.67578 0.91406,-3.82422 1.64844,-4.98047c0.28125,-0.82422 0.97656,-1.46875 1.86328,-1.65234c0.40625,-0.07812 0.80469,0.17969 0.88281,0.58594c0.08594,0.40625 -0.17578,0.80078 -0.58203,0.88281c-0.46094,0.09766 -0.79687,0.50781 -0.79687,0.98047c0,0.55078 0.44531,1 1,1c0.47266,0 0.88281,-0.33203 0.97656,-0.79687c0.36719,-1.14844 1.21484,-3.60156 1.85547,-4.44922c0.36328,-0.63672 0.99609,-1.10156 1.76953,-1.22266zM37.38281,22.01172c0.19141,0.00781 0.37891,0.08984 0.52344,0.24219c0.27734,0.30469 0.25781,0.77734 -0.04687,1.05859c-0.21094,0.19141 -0.32422,0.45313 -0.32422,0.73438c0,0.55469 0.44922,1 1,1c0.41016,0 0.98438,-0.26172 0.98438,-0.84375c0,-0.14453 -0.02344,-0.28906 -0.13281,-0.55859c-0.15625,-0.38281 0.02734,-0.82031 0.41016,-0.97656c0.38281,-0.15625 0.82031,0.02344 0.98047,0.41016c0.16797,0.41406 0.24219,0.75391 0.24219,1.125c-0.00391,1.46875 -1.26562,2.34375 -2.48828,2.34375c-0.34766,0 -0.67578,-0.06641 -0.97266,-0.19531c0.02734,0.32422 0.05859,0.64844 0.09375,0.95313c0.125,1.17969 0.22266,2.10547 0.07813,2.70703c-0.31641,1.28906 -1.27344,2.03125 -2.625,2.03125c-0.57812,0 -1.07031,-0.21875 -1.45312,-0.58203c0.01953,0.14063 0.04297,0.28516 0.07813,0.42969c0.38281,1.625 0.125,2.57813 -0.48047,3.76563c-0.22656,0.44922 -0.53125,0.86719 -0.90625,1.23438c-0.14844,0.14453 -0.33984,0.21484 -0.52734,0.21484c-0.19531,0 -0.39062,-0.07422 -0.53516,-0.22656c-0.23437,-0.23828 -0.26562,-0.58984 -0.11328,-0.875c-0.39453,-0.05078 -0.75781,-0.1875 -1.07422,-0.39844c-0.04297,0.39453 -0.08594,0.82031 -0.12109,1.28125c-0.08984,1.20703 -1.17187,2.14844 -2.47266,2.14844c-0.82812,0 -1.5625,-0.41016 -2.01562,-1.03516c-0.20703,0.57031 -0.38281,1.21094 -0.51953,1.96484c-0.21875,1.19922 -1.25391,2.07031 -2.46484,2.07031c-0.38672,0 -0.75,-0.09375 -1.07812,-0.25391c-0.38672,0.80469 -1.07812,1.17578 -1.51953,1.25391c-0.04687,0.01172 -0.08984,0.01563 -0.13672,0.01563c-0.35547,0 -0.66797,-0.25391 -0.73437,-0.61328c-0.07422,-0.40234 0.18359,-0.78906 0.58203,-0.87109c0.10547,-0.02734 0.57031,-0.20312 0.58203,-1.0625c-0.125,-0.29687 -0.19531,-0.62109 -0.19531,-0.96484c0,-0.69922 0.29297,-1.36719 0.80859,-1.83984c0.30469,-0.28125 0.77734,-0.26172 1.0625,0.04297c0.27734,0.30469 0.25781,0.78125 -0.04687,1.05859c-0.21094,0.19141 -0.32422,0.45703 -0.32422,0.73828c0,0.55078 0.44922,1 1,1c0.48438,0 0.89844,-0.35547 0.98828,-0.84375c0.375,-2.07422 0.98047,-3.51953 1.90625,-4.55469c0.01953,-0.02344 0.04688,-0.03516 0.07031,-0.05078c0.10156,-0.14453 0.21484,-0.27344 0.34375,-0.39062c0.30469,-0.28125 0.77734,-0.26172 1.0625,0.04297c0.27734,0.30469 0.25781,0.78125 -0.04687,1.05859c-0.21094,0.19141 -0.32422,0.45703 -0.32422,0.73828c0,0.55078 0.44922,1 1,1c0.5,0 0.94531,-0.35156 0.98047,-0.76562c0.09766,-1.32812 0.29688,-3.10937 0.66406,-4.05469c0.00781,-0.01562 0.01172,-0.01953 0.01563,-0.03125c0.13672,-0.37109 0.35156,-0.71484 0.65234,-0.98828c0.30469,-0.28125 0.77734,-0.26172 1.05859,0.04297c0.28125,0.30469 0.26172,0.78125 -0.04297,1.05859c-0.21094,0.19141 -0.32812,0.45703 -0.32812,0.73828c0,0.55078 0.44922,1 1,1c0.21484,0 0.52344,-0.04687 0.77734,-0.46484c0.00781,-0.01562 0.01953,-0.02344 0.02734,-0.03516c0.14844,-0.51953 0.14844,-1.03516 -0.03516,-1.80469c-0.46875,-2 0.06641,-3.8125 1.43359,-4.84766c0.00781,0.00391 0.00781,0.00391 0.01563,0.00781c0.28125,-0.21094 0.67188,-0.21094 0.94531,0.03516c0.30469,0.28125 0.32813,0.75391 0.05078,1.05859c-0.29297,0.31641 -0.44531,1.10938 -0.20312,1.65234c0.15234,0.35547 0.38672,0.40234 0.59766,0.40234c0.65625,0 1.01563,-0.27734 1.16406,-0.88672c0.08203,-0.34766 -0.01953,-1.32812 -0.11328,-2.19141c-0.125,-1.20703 -0.25,-2.53125 -0.10937,-3.57422c0.01172,-0.16406 0.03516,-0.32422 0.07813,-0.48437c0.00781,-0.02344 0.00391,-0.05078 0.01172,-0.07812c0.00781,-0.02344 0.02344,-0.04297 0.03516,-0.06641c0.13281,-0.39844 0.35156,-0.76562 0.66797,-1.05469c0.15234,-0.13672 0.34766,-0.20312 0.53906,-0.19531z"></path></g></g></svg>